<svg width="312" height="48" viewBox="0 0 312 48" fill="none" xmlns="http://www.w3.org/2000/svg">
<path d="M6.45 39C4.71667 38.5333 3.38334 37.65 2.45 36.35C1.55 35.05 1.05 33.25 0.950003 30.95C0.883336 28.6167 1.2 25.7167 1.9 22.25C2.13334 21.0833 2.46667 19.75 2.9 18.25C3.33334 16.75 3.83334 15.2167 4.4 13.65C5 12.05 5.61667 10.5167 6.25 9.05C6.91667 7.55 7.56667 6.23334 8.2 5.1C8.96667 3.73334 9.63334 2.81667 10.2 2.35C10.7667 1.88334 11.3167 1.68334 11.85 1.75C12.65 1.88334 13.25 2.21667 13.65 2.75C14.0833 3.25 14.2833 3.8 14.25 4.4C14.25 4.96667 13.9667 5.43334 13.4 5.8C13.0333 6.23334 12.55 7.03334 11.95 8.2C11.3833 9.33334 10.8 10.4333 10.2 11.5C9.53334 13.4333 8.95 15.15 8.45 16.65C7.95 18.1167 7.53334 19.5 7.2 20.8C6.86667 22.1 6.56667 23.4667 6.3 24.9C6 26.3 5.76667 27.3833 5.6 28.15C5.43334 28.8833 5.31667 29.45 5.25 29.85C5.21667 30.2167 5.18334 30.55 5.15 30.85C5.15 31.1167 5.15 31.4833 5.15 31.95C5.41667 32.3833 5.63334 32.7667 5.8 33.1C5.96667 33.4333 6.18334 33.6333 6.45 33.7C7.01667 33.9667 7.58334 34.1 8.15 34.1C8.75 34.1 9.4 33.9 10.1 33.5C10.2667 33.1667 10.4833 32.9333 10.75 32.8C11.0167 32.6667 11.15 32.6 11.15 32.6C11.2167 32.7667 11.2833 32.8167 11.35 32.75C11.45 32.65 11.5167 32.5333 11.55 32.4C11.5167 32.2667 11.55 32.15 11.65 32.05C11.75 31.9167 11.8667 31.7833 12 31.65C12.2667 31.55 12.6 31.2667 13 30.8C13.4333 30.3333 13.85 29.8167 14.25 29.25C14.65 28.65 14.9833 28.1 15.25 27.6C15.55 27.1 15.7 26.7833 15.7 26.65C15.7 26.4833 15.7667 26.3333 15.9 26.2C16.0333 26.0667 16.1833 25.9 16.35 25.7C16.5167 25.5333 16.85 25 17.35 24.1C17.8833 23.1667 18.45 22.0833 19.05 20.85C19.6833 19.6167 20.25 18.4833 20.75 17.45C20.85 17.0833 21.0333 16.5 21.3 15.7C21.5667 14.8667 21.85 13.9167 22.15 12.85C22.4833 11.7833 22.8 10.7167 23.1 9.65C23.4 8.55 23.6667 7.58334 23.9 6.75C24.1667 5.88334 24.3333 5.25 24.4 4.85C24.4667 4.41667 24.5667 4.06667 24.7 3.8C24.8333 3.5 24.9167 3.28334 24.95 3.15C25.3167 2.85 25.7333 2.76667 26.2 2.9C26.6667 3.03334 27.1 3.23334 27.5 3.5C27.9333 3.73334 28.25 3.9 28.45 4C28.65 4.26667 28.7333 4.6 28.7 5C28.6667 5.4 28.55 6.01667 28.35 6.85001C28.1833 7.65 27.9333 8.81667 27.6 10.35C26.9 13.0833 26.05 15.6 25.05 17.9C24.0833 20.2 23.0333 22.6333 21.9 25.2C21.9 25.2 21.9 25.2167 21.9 25.25C21.9 25.25 21.9 25.3333 21.9 25.5C21.5 25.7333 21.1833 26.0833 20.95 26.55C20.7833 26.85 20.6333 27.1167 20.5 27.35C20.4 27.55 20.2667 27.7 20.1 27.8C20 28.1 19.9 28.3667 19.8 28.6C19.7 28.8333 19.65 28.95 19.65 28.95C19.6167 29.1167 19.5 29.2667 19.3 29.4C19.1 29.5333 18.9 29.6667 18.7 29.8C18.5333 29.8667 18.4333 30 18.4 30.2C18.3667 30.4 18.3 30.5667 18.2 30.7C17.4667 31.8 16.5667 32.9167 15.5 34.05C14.4333 35.15 13.3333 36.1167 12.2 36.95C11.1 37.7833 10.1 38.3667 9.2 38.7C8.6 38.9333 8.1 39.0667 7.7 39.1C7.33334 39.1333 6.91667 39.1 6.45 39Z" fill="#130F26"/>
<path d="M22.6594 47.65C22.526 47.65 22.326 47.65 22.0594 47.65C21.826 47.6833 21.626 47.55 21.4594 47.25C21.326 47.0833 21.126 46.75 20.8594 46.25C20.5927 45.7833 20.5427 45.1167 20.7094 44.25C20.876 43.6833 21.0094 43.1167 21.1094 42.55C21.2094 42.0167 21.2594 41.6167 21.2594 41.35C21.2594 41.2167 21.2927 40.95 21.3594 40.55C21.4594 40.1833 21.5094 39.9167 21.5094 39.75C21.676 39.4833 21.8094 39.1167 21.9094 38.65C22.0094 38.1833 22.0594 37.7667 22.0594 37.4C22.0594 37 22.2594 36.6333 22.6594 36.3C22.6594 36.0333 22.7094 35.7 22.8094 35.3C22.9427 34.9 23.0094 34.6333 23.0094 34.5C23.1094 34.0333 23.326 33.2167 23.6594 32.05C24.026 30.85 24.4594 29.5 24.9594 28C25.4927 26.5 26.0094 25.0333 26.5094 23.6C27.0094 22.1667 27.4594 20.95 27.8594 19.95C28.2594 19.0167 28.5927 18.15 28.8594 17.35C29.126 16.55 29.2594 15.9833 29.2594 15.65C29.2594 15.5167 29.2927 15.4167 29.3594 15.35C29.426 15.25 29.576 15.0667 29.8094 14.8C30.1427 14.4667 30.576 14.35 31.1094 14.45C31.676 14.5167 32.1427 14.6833 32.5094 14.95C32.776 15.3833 32.9594 15.7833 33.0594 16.15C33.1927 16.4833 33.1927 17.0167 33.0594 17.75C33.0594 18.25 32.9427 18.7167 32.7094 19.15C32.476 19.55 32.2594 19.8833 32.0594 20.15C31.8927 20.3833 31.8427 20.4833 31.9094 20.45C33.376 19.55 34.6927 19.0667 35.8594 19C37.0594 18.9 38.0594 19.1 38.8594 19.6C39.6927 20.0667 40.326 20.7167 40.7594 21.55C41.1927 22.3833 41.4094 23.2833 41.4094 24.25C41.4094 24.65 41.276 25.1833 41.0094 25.85C40.7427 26.5167 40.4427 27.15 40.1094 27.75C39.776 28.3167 39.5094 28.7 39.3094 28.9C39.176 28.9 39.0427 29.0167 38.9094 29.25C38.776 29.45 38.6427 29.6833 38.5094 29.95C38.2427 30.2833 37.7927 30.6667 37.1594 31.1C36.5594 31.5 35.9427 31.8333 35.3094 32.1C34.676 32.3333 34.226 32.4 33.9594 32.3C33.9594 32.3 33.9094 32.3333 33.8094 32.4C33.7427 32.4667 33.7094 32.5833 33.7094 32.75C33.7094 32.8167 33.476 32.95 33.0094 33.15C32.5427 33.35 31.9927 33.5333 31.3594 33.7C30.726 33.8667 30.1427 33.95 29.6094 33.95C28.9094 33.95 28.4094 33.8167 28.1094 33.55C28.0427 33.6167 27.9594 33.7167 27.8594 33.85C27.7927 33.9833 27.7594 34.1 27.7594 34.2C27.7594 34.4 27.676 34.7167 27.5094 35.15C27.376 35.5833 27.2094 35.9667 27.0094 36.3C26.8094 36.6667 26.626 36.85 26.4594 36.85C26.4594 36.85 26.426 36.9 26.3594 37C26.2927 37.1 26.326 37.2333 26.4594 37.4C26.4594 37.4 26.4427 37.5833 26.4094 37.95C26.4094 38.35 26.326 38.6833 26.1594 38.95C26.1594 39.2167 26.1094 39.6167 26.0094 40.15C25.9094 40.6833 25.7927 41.0833 25.6594 41.35C25.6594 41.75 25.5927 42.1333 25.4594 42.5C25.3594 42.9 25.2427 43.1 25.1094 43.1C24.976 43.1333 24.8927 43.3333 24.8594 43.7C24.826 44.1 24.8094 44.3833 24.8094 44.55C24.776 45.3833 24.5094 46.1 24.0094 46.7C23.5094 47.3333 23.0594 47.65 22.6594 47.65ZM29.0594 30.15C29.326 30.15 29.8094 30.0333 30.5094 29.8C31.2094 29.5667 31.9427 29.2833 32.7094 28.95C33.476 28.5833 34.076 28.2167 34.5094 27.85C35.376 27.0833 36.0427 26.3333 36.5094 25.6C37.0094 24.8667 36.976 24.05 36.4094 23.15C36.1427 22.6833 35.7094 22.5 35.1094 22.6C34.5427 22.6667 33.9094 22.9333 33.2094 23.4C32.5094 23.8667 31.7927 24.45 31.0594 25.15C30.6594 25.5833 30.2927 26.0833 29.9594 26.65C29.626 27.2167 29.3427 27.7667 29.1094 28.3C28.9094 28.8333 28.7927 29.2833 28.7594 29.65C28.726 29.9833 28.826 30.15 29.0594 30.15Z" fill="#130F26"/>
<path d="M44.8059 34.8C44.4725 34.6 44.1059 34.3167 43.7059 33.95C43.3059 33.55 43.1059 33.1667 43.1059 32.8C43.1059 32.3 43.1725 31.6833 43.3059 30.95C43.4392 30.1833 43.5725 29.5333 43.7059 29C43.7725 28.4 43.8559 27.8 43.9559 27.2C44.0892 26.5667 44.3225 25.9833 44.6559 25.45C45.0225 24.1833 45.4059 22.9333 45.8059 21.7C46.2059 20.4333 46.5559 19.1333 46.8559 17.8C47.2892 16.5667 47.6725 15.4833 48.0059 14.55C48.3725 13.5833 48.8225 12.3667 49.3559 10.9C49.6559 10.0667 49.9059 9.18334 50.1059 8.25C50.3392 7.28334 50.6892 6.41667 51.1559 5.65C51.3559 5.35 51.5059 5.1 51.6059 4.9C51.7392 4.66667 51.8725 4.45 52.0059 4.25C52.0392 4.11667 52.2059 4 52.5059 3.9C52.8392 3.8 53.1725 3.75 53.5059 3.75C53.8725 3.71667 54.1225 3.78334 54.2559 3.95C54.3559 3.91667 54.5225 4.05 54.7559 4.35C54.9892 4.61667 55.2059 4.93334 55.4059 5.3C55.6392 5.63334 55.7392 5.9 55.7059 6.1C55.7059 6.23334 55.6725 6.41667 55.6059 6.65C55.5725 6.88334 55.4892 7.1 55.3559 7.3C55.2225 7.43334 55.0892 7.63334 54.9559 7.9C54.8559 8.13334 54.6892 8.46667 54.4559 8.9C54.3225 9.33334 54.2059 9.78334 54.1059 10.25C54.0059 10.6833 53.8725 11.0833 53.7059 11.45C53.5725 11.85 53.4059 12.2333 53.2059 12.6C53.0392 12.9667 52.9225 13.2667 52.8559 13.5C52.6225 14.2667 52.3392 15.0167 52.0059 15.75C51.7059 16.4833 51.4392 17.2667 51.2059 18.1C50.9725 18.9 50.7392 19.7333 50.5059 20.6C50.2725 21.4333 49.9392 22.2333 49.5059 23C49.2725 23.3667 49.1059 23.8333 49.0059 24.4C48.9059 24.9667 48.8059 25.5333 48.7059 26.1C48.5059 26.7 48.3225 27.2667 48.1559 27.8C48.0225 28.3 47.9559 28.6167 47.9559 28.75C47.7559 29.4833 47.6059 30.2167 47.5059 30.95C47.4392 31.65 47.2725 32.2667 47.0059 32.8C46.9725 33.1333 46.8559 33.5 46.6559 33.9C46.4559 34.3 46.1892 34.6 45.8559 34.8C45.5559 35 45.2059 35 44.8059 34.8Z" fill="#130F26"/>
<path d="M55.7926 35.65C55.3592 35.65 55.0092 35.5667 54.7426 35.4C54.5092 35.2333 54.2092 35 53.8426 34.7C53.2092 34.0333 52.6926 33.3167 52.2926 32.55C51.9259 31.7833 51.7926 31.1167 51.8926 30.55C51.9926 30.2833 52.0259 30.0333 51.9926 29.8C51.9926 29.5333 51.9926 29.4 51.9926 29.4C51.8259 29.2333 51.7759 29.1333 51.8426 29.1C51.9092 29.0333 51.9759 28.9333 52.0426 28.8C52.2426 28.8 52.3092 28.6167 52.2426 28.25C52.1759 27.9833 52.2759 27.4167 52.5426 26.55C52.8426 25.65 53.2426 24.8 53.7426 24C53.9426 23.6667 54.2426 23.2333 54.6426 22.7C55.0426 22.1333 55.4759 21.5833 55.9426 21.05C56.4426 20.4833 56.8926 20.0333 57.2926 19.7C58.1259 19 58.8926 18.4333 59.5926 18C60.3259 17.5667 61.0592 17.2667 61.7926 17.1C62.5259 16.9333 63.2759 16.85 64.0426 16.85C64.8426 16.85 65.4926 17.1167 65.9926 17.65C66.7593 17.9833 67.2926 18.4333 67.5926 19C67.9259 19.5667 68.1426 20.3 68.2426 21.2C68.3426 22.2 68.2426 23.4333 67.9426 24.9C67.6426 26.3333 66.8259 28 65.4926 29.9C64.6593 31.1 63.8426 32.0333 63.0426 32.7C62.2426 33.3667 61.3592 33.9833 60.3926 34.55C59.6926 35.0167 58.9426 35.3 58.1426 35.4C57.3426 35.5 56.5592 35.5833 55.7926 35.65ZM60.8926 29.55C61.6259 28.9167 62.1426 28.2167 62.4426 27.45C62.7759 26.6833 63.1259 25.7833 63.4926 24.75C63.6259 24.55 63.7092 24.2167 63.7426 23.75C63.8092 23.2833 63.8259 22.8333 63.7926 22.4C63.7592 21.9333 63.6426 21.6667 63.4426 21.6C63.1426 21.3667 62.8426 21.3167 62.5426 21.45C62.2426 21.55 61.8592 21.7667 61.3926 22.1C60.3926 22.9333 59.4592 23.9 58.5926 25C57.7592 26.0667 57.1759 27.3833 56.8426 28.95C56.7426 29.7833 56.8259 30.4167 57.0926 30.85C57.3926 31.25 57.8592 31.3667 58.4926 31.2C59.1592 31 59.9592 30.45 60.8926 29.55Z" fill="#130F26"/>
<path d="M74.9578 35.3C74.6912 35.3667 74.3411 35.4 73.9078 35.4C73.4745 35.3667 73.0911 35.3167 72.7578 35.25C72.4578 35.15 72.3078 35.05 72.3078 34.95C72.3078 34.7833 72.2245 34.7 72.0578 34.7C72.0578 34.7 71.8745 34.5667 71.5078 34.3C71.1411 34 70.8078 33.7833 70.5078 33.65C70.2078 33.1833 70.0078 32.65 69.9078 32.05C69.8411 31.4167 70.0411 30.3167 70.5078 28.75C70.5411 27.6833 70.8411 26.5667 71.4078 25.4C71.9745 24.2 72.6911 23.0333 73.5578 21.9C74.4245 20.7667 75.3245 19.7667 76.2578 18.9C77.1911 18 78.0245 17.3333 78.7578 16.9C79.2245 16.4333 79.8412 16.1833 80.6078 16.15C81.4078 16.1167 82.1078 16.2667 82.7078 16.6C83.0412 16.7667 83.4078 17.1 83.8078 17.6C84.2078 18.1 84.5912 18.6333 84.9578 19.2C85.3245 19.7333 85.6078 20.2167 85.8078 20.65C85.9078 21.0167 85.9911 21.35 86.0578 21.65C86.1578 21.9167 86.2245 22.25 86.2578 22.65C86.2911 23.05 86.2578 23.65 86.1578 24.45C85.9911 25.05 85.8412 25.6667 85.7078 26.3C85.6078 26.9 85.5578 27.5167 85.5578 28.15C85.4911 28.7833 85.5578 29.2333 85.7578 29.5C85.9912 29.7667 86.3245 29.7833 86.7578 29.55C87.1578 29.35 87.5745 29.3333 88.0078 29.5C88.4411 29.6333 88.7411 29.9 88.9078 30.3C89.1078 30.6667 89.0578 31.15 88.7578 31.75C88.5578 32.1833 88.2411 32.6 87.8078 33C87.3745 33.4 86.8912 33.7333 86.3578 34C85.8245 34.2333 85.3078 34.35 84.8078 34.35C84.4411 34.35 84.0745 34.2167 83.7078 33.95C83.3412 33.65 83.0078 33.25 82.7078 32.75C82.4078 32.25 82.1578 31.7 81.9578 31.1L81.6578 29.95L79.8578 31.6C79.4245 32.0667 78.9911 32.5 78.5578 32.9C78.1578 33.2667 77.9078 33.5333 77.8078 33.7C77.6411 34 77.3078 34.2667 76.8078 34.5C76.3411 34.7333 75.7245 35 74.9578 35.3ZM76.3078 30.5C76.8745 30.1667 77.3578 29.7667 77.7578 29.3C78.1911 28.8333 78.6078 28.3167 79.0078 27.75C79.4078 27.15 79.8411 26.5167 80.3078 25.85C80.8745 25.0833 81.2745 24.4667 81.5078 24C81.7745 23.5333 81.9745 23.0333 82.1078 22.5C81.9745 22.1333 81.7911 21.75 81.5578 21.35C81.3245 20.9167 81.0912 20.6833 80.8578 20.65C80.3912 20.65 79.8245 20.9333 79.1578 21.5C78.5245 22.0667 77.8245 22.8833 77.0578 23.95C76.9245 24.1167 76.7578 24.3833 76.5578 24.75C76.3578 25.1167 76.1578 25.4667 75.9578 25.8C75.7912 26.1 75.6745 26.3 75.6078 26.4C75.5078 26.5333 75.3578 26.85 75.1578 27.35C74.9911 27.8167 74.8412 28.3 74.7078 28.8C74.5745 29.2667 74.5078 29.6 74.5078 29.8C74.5078 30 74.5245 30.2167 74.5578 30.45C74.6245 30.6833 74.7911 30.8333 75.0578 30.9C75.3245 30.9667 75.7411 30.8333 76.3078 30.5Z" fill="#130F26"/>
<path d="M103.866 36.6C103.499 36.7333 103.082 36.8 102.616 36.8C102.182 36.8333 101.682 36.6333 101.116 36.2C100.782 35.8333 100.549 35.45 100.416 35.05C100.316 34.65 100.266 34.0333 100.266 33.2C100.332 32.7 100.466 31.9833 100.666 31.05C100.866 30.0833 101.082 29.0833 101.316 28.05C101.582 26.9833 101.816 26.0333 102.016 25.2C102.249 24.3333 102.432 23.75 102.566 23.45C102.799 22.65 102.849 22.15 102.716 21.95C102.582 21.75 102.182 21.6333 101.516 21.6C100.749 21.5667 99.949 21.9333 99.1156 22.7C98.2823 23.4667 97.3323 24.6833 96.2656 26.35C95.4656 27.5833 94.9823 28.6 94.8156 29.4C94.649 30.1667 94.6323 30.7 94.7656 31C94.8323 31.1333 94.949 31.2167 95.1156 31.25C95.3156 31.25 95.549 31.2 95.8156 31.1C96.1156 31 96.4323 30.8667 96.7656 30.7C96.999 30.5667 97.2823 30.4333 97.6156 30.3C97.9823 30.1333 98.3323 29.9833 98.6656 29.85C98.8656 29.85 98.999 29.9667 99.0656 30.2C99.1656 30.4333 99.2156 30.7167 99.2156 31.05C99.2156 31.1833 99.249 31.4333 99.3156 31.8C99.4156 32.1667 99.5823 32.4167 99.8156 32.55C99.949 32.6833 99.6656 32.9667 98.9656 33.4C98.299 33.8 97.4323 34.3 96.3656 34.9C95.3656 35.1333 94.6156 35.25 94.1156 35.25C93.649 35.25 93.1323 35.0333 92.5656 34.6C91.6323 34.0333 91.0323 32.9833 90.7656 31.45C90.5323 29.9167 90.7323 28.2167 91.3656 26.35C91.999 24.85 92.699 23.5667 93.4656 22.5C94.2656 21.4 95.099 20.4 95.9656 19.5C96.099 19.3667 96.5156 19.1 97.2156 18.7C97.9156 18.3 98.6323 17.9833 99.3656 17.75C100.199 17.4833 100.899 17.3833 101.466 17.45C102.066 17.4833 102.632 17.6833 103.166 18.05C103.766 18.1833 104.166 18.1667 104.366 18C104.599 17.8333 104.866 17.3667 105.166 16.6C105.766 14.9333 106.399 13.25 107.066 11.55C107.732 9.81667 108.432 8.06667 109.166 6.3C109.499 5.66667 109.699 5.18334 109.766 4.85C109.866 4.48334 109.982 4.23334 110.116 4.1L111.516 3.65C111.882 3.55 112.299 3.71667 112.766 4.15C113.266 4.58334 113.582 5 113.716 5.4C113.716 5.7 113.582 6.36667 113.316 7.4C113.049 8.4 112.616 9.6 112.016 11C111.482 12.2333 110.949 13.4833 110.416 14.75C109.916 15.9833 109.432 17.3 108.966 18.7C108.599 19.7333 108.266 20.5667 107.966 21.2C107.666 21.8333 107.466 22.3833 107.366 22.85C107.166 23.7167 106.916 24.5 106.616 25.2C106.349 25.8667 106.166 26.3333 106.066 26.6C105.632 27.8667 105.299 28.9167 105.066 29.75C104.832 30.55 104.682 31.25 104.616 31.85C104.549 32.4167 104.532 32.9833 104.566 33.55C104.599 34.0833 104.666 34.7 104.766 35.4C104.766 35.5333 104.666 35.7333 104.466 36C104.299 36.2333 104.099 36.4333 103.866 36.6Z" fill="#130F26"/>
<path d="M117.183 39.3C116.683 39.1 116.099 38.8167 115.433 38.45C114.766 38.1167 114.133 37.6667 113.533 37.1C112.933 36.5333 112.466 35.85 112.133 35.05C111.799 34.0833 111.566 33.1333 111.433 32.2C111.333 31.2667 111.299 30.1833 111.333 28.95C111.333 27.2167 111.449 25.7167 111.683 24.45C111.949 23.15 112.349 21.8333 112.883 20.5C112.949 20.4 113.066 20.1167 113.233 19.65C113.433 19.15 113.649 18.6167 113.883 18.05C114.149 17.4833 114.349 17.05 114.483 16.75C114.749 16.1833 115.149 15.4333 115.683 14.5C116.249 13.5333 116.849 12.6 117.483 11.7C118.449 10.2667 119.266 9.1 119.933 8.2C120.599 7.26667 121.233 6.48334 121.833 5.85C122.466 5.21667 123.149 4.6 123.883 4C124.649 3.4 125.599 2.71667 126.733 1.95C127.466 1.41667 128.399 1.08334 129.533 0.950003C130.699 0.81667 131.833 1 132.933 1.5C134.033 1.96667 134.849 2.86667 135.383 4.2C135.749 4.9 135.916 5.78334 135.883 6.85001C135.849 7.88334 135.649 9 135.283 10.2C134.916 11.3667 134.449 12.4667 133.883 13.5C133.316 14.5333 132.683 15.3667 131.983 16C131.549 16.4 130.966 16.4667 130.233 16.2C129.533 15.9333 128.949 15.5833 128.483 15.15C128.183 14.5833 128.016 14.25 127.983 14.15C127.983 14.05 128.049 13.9833 128.183 13.95C128.383 13.7167 128.649 13.3167 128.983 12.75C129.316 12.1833 129.649 11.5833 129.983 10.95C130.316 10.2833 130.549 9.75 130.683 9.35C130.949 7.95 131.133 7.03334 131.233 6.60001C131.333 6.13334 131.233 5.75 130.933 5.45001C130.799 5.31667 130.599 5.26667 130.333 5.3C130.099 5.33334 129.699 5.5 129.133 5.8C128.366 6.13334 127.449 6.81667 126.383 7.85C125.349 8.85 124.316 10.05 123.283 11.45C121.949 13.2167 120.833 14.7833 119.933 16.15C119.033 17.5167 118.349 18.9167 117.883 20.35C117.816 20.4833 117.699 20.7333 117.533 21.1C117.399 21.4667 117.333 21.65 117.333 21.65C117.366 21.7833 117.316 22.1167 117.183 22.65C117.049 23.15 116.899 23.5833 116.733 23.95C116.366 25.4833 116.149 26.9667 116.083 28.4C116.016 29.8 116.099 31.0333 116.333 32.1C116.599 33.1333 116.983 33.9 117.483 34.4C117.916 34.7 118.466 34.8 119.133 34.7C119.799 34.6 120.566 34.3667 121.433 34C122.299 33.6333 123.233 33.2333 124.233 32.8C125.033 32.4667 125.766 32.1 126.433 31.7C127.099 31.3 127.599 30.95 127.933 30.65C128.199 30.45 128.533 30.25 128.933 30.05C129.366 29.8167 129.733 29.7 130.033 29.7C130.499 29.5333 130.849 29.6667 131.083 30.1C131.316 30.5333 131.433 31.0833 131.433 31.75C131.433 32.2167 131.099 32.7833 130.433 33.45C129.766 34.1167 129.033 34.6833 128.233 35.15C127.966 35.4167 127.599 35.6667 127.133 35.9C126.699 36.1 126.249 36.2833 125.783 36.45C125.083 36.9833 124.216 37.5 123.183 38C122.149 38.5 121.099 38.8833 120.033 39.15C118.999 39.4167 118.049 39.4667 117.183 39.3Z" fill="#130F26"/>
<path d="M139.861 36.45C139.428 36.4833 139.078 36.4333 138.811 36.3C138.544 36.2 138.211 36.0333 137.811 35.8C137.078 35.2333 136.461 34.5333 135.961 33.7C135.494 32.8667 135.278 32.1667 135.311 31.6C135.378 31.3 135.378 31.0333 135.311 30.8C135.278 30.5667 135.261 30.45 135.261 30.45C135.061 30.2833 134.994 30.1833 135.061 30.15C135.128 30.0833 135.178 29.9833 135.211 29.85C135.478 29.7833 135.511 29.6 135.311 29.3C135.211 29.0333 135.261 28.4333 135.461 27.5C135.694 26.5333 135.994 25.6333 136.361 24.8C136.528 24.4333 136.761 23.95 137.061 23.35C137.394 22.75 137.761 22.15 138.161 21.55C138.561 20.9167 138.928 20.4167 139.261 20.05C139.994 19.2167 140.644 18.5333 141.211 18C141.811 17.4667 142.478 17.0667 143.211 16.8C143.878 16.5333 144.544 16.4167 145.211 16.45C145.911 16.4833 146.528 16.7167 147.061 17.15C147.861 17.3833 148.578 17.75 149.211 18.25C149.844 18.7167 150.278 19.3833 150.511 20.25C150.778 21.2167 150.861 22.3667 150.761 23.7C150.694 25 150.128 26.6833 149.061 28.75C148.428 30.05 147.794 31.1 147.161 31.9C146.561 32.7 145.828 33.4667 144.961 34.2C144.328 34.7333 143.511 35.2 142.511 35.6C141.511 36 140.628 36.2833 139.861 36.45ZM144.211 28.9C144.644 28.3 144.978 27.7167 145.211 27.15C145.478 26.5833 145.728 25.8 145.961 24.8C146.061 24.4333 146.111 23.9833 146.111 23.45C146.144 22.9167 146.128 22.4333 146.061 22C146.028 21.5333 145.911 21.2833 145.711 21.25C145.278 21.0833 144.828 21.0833 144.361 21.25C143.928 21.3833 143.411 21.7833 142.811 22.45C142.278 23.05 141.844 23.6167 141.511 24.15C141.211 24.65 140.928 25.2667 140.661 26C140.428 26.7 140.161 27.6167 139.861 28.75C139.594 29.85 139.578 30.7333 139.811 31.4C140.078 32.0667 140.578 32.25 141.311 31.95C142.044 31.65 143.011 30.6333 144.211 28.9Z" fill="#130F26"/>
<path d="M176.376 34.8C176.143 34.7333 175.776 34.5167 175.276 34.15C174.776 33.7833 174.326 33.2333 173.926 32.5C173.56 31.7667 173.393 30.8167 173.426 29.65C173.46 28.65 173.526 27.95 173.626 27.55C173.76 27.1167 173.71 26.8833 173.476 26.85C173.31 26.8167 172.976 26.9667 172.476 27.3C171.976 27.6333 171.326 28.1667 170.526 28.9C169.726 29.6333 168.76 30.6 167.626 31.8C167.226 32.1333 166.776 32.55 166.276 33.05C165.81 33.5167 165.326 33.8667 164.826 34.1C164.36 34.3333 163.943 34.2833 163.576 33.95L163.076 33.5C162.843 33.3 162.643 33.0333 162.476 32.7C162.31 32.3667 162.26 32.0833 162.326 31.85L163.726 27.95C164.126 27.0833 164.393 26.45 164.526 26.05C164.693 25.65 164.76 25.4 164.726 25.3C164.726 25.2 164.643 25.1667 164.476 25.2C164.276 25.2333 163.993 25.4167 163.626 25.75C163.26 26.05 163.01 26.3 162.876 26.5C162.743 26.5 162.56 26.6333 162.326 26.9C162.126 27.1667 161.926 27.4 161.726 27.6C161.526 27.8 161.176 28.1833 160.676 28.75C160.176 29.2833 159.643 29.85 159.076 30.45C158.643 30.85 158.143 31.3833 157.576 32.05C157.01 32.7167 156.51 33.3167 156.076 33.85C155.643 34.3833 155.376 34.65 155.276 34.65C154.676 34.6167 154.126 34.4167 153.626 34.05C153.16 33.6833 152.843 33.2333 152.676 32.7C152.476 32.3333 152.46 31.6667 152.626 30.7C152.793 29.7 153.11 28.1167 153.576 25.95C153.71 25.45 153.826 25.0167 153.926 24.65C154.06 24.2833 154.193 23.9167 154.326 23.55C154.46 23.1833 154.61 22.7667 154.776 22.3C154.976 21.8333 155.226 21.2667 155.526 20.6C155.693 20.1333 155.76 19.7 155.726 19.3C155.693 18.8667 155.66 18.5167 155.626 18.25C155.626 17.75 155.776 17.35 156.076 17.05C156.41 16.75 156.776 16.55 157.176 16.45C157.576 16.3167 157.893 16.2833 158.126 16.35C159.06 16.45 159.693 16.7833 160.026 17.35C160.36 17.9167 160.543 18.4667 160.576 19C160.61 19.5 160.543 19.95 160.376 20.35C160.21 20.75 160.076 21.0833 159.976 21.35L159.426 22.7C159.093 23.4667 158.843 24.0333 158.676 24.4C158.543 24.7333 158.46 24.9667 158.426 25.1C158.426 25.2 158.426 25.3 158.426 25.4C158.46 25.5 158.61 25.45 158.876 25.25C159.143 25.05 159.46 24.7833 159.826 24.45C160.226 24.0833 160.593 23.7667 160.926 23.5C161.526 23 162.16 22.5 162.826 22C163.526 21.4667 164.21 21 164.876 20.6C165.543 20.2 166.093 19.9333 166.526 19.8C167.093 19.9 167.61 20.1833 168.076 20.65C168.576 21.1167 168.893 21.5167 169.026 21.85C169.193 22.35 169.21 22.8 169.076 23.2C168.976 23.6 168.893 23.9667 168.826 24.3C168.793 24.4333 168.726 24.6833 168.626 25.05C168.526 25.4167 168.426 25.7667 168.326 26.1C168.226 26.4 168.176 26.55 168.176 26.55C168.176 26.55 168.276 26.45 168.476 26.25C168.676 26.05 168.943 25.8167 169.276 25.55C169.61 25.25 169.943 24.9833 170.276 24.75C171.943 23.4833 173.26 22.6833 174.226 22.35C175.226 21.9833 176.076 22.2667 176.776 23.2C177.176 23.5667 177.426 24.0667 177.526 24.7C177.66 25.3333 177.726 26.1833 177.726 27.25C177.76 27.6833 177.793 28.1667 177.826 28.7C177.893 29.2333 177.96 29.7 178.026 30.1C178.126 30.5 178.21 30.75 178.276 30.85C178.376 30.9833 178.56 31.1167 178.826 31.25C179.093 31.35 179.343 31.4333 179.576 31.5C180.043 31.7333 180.293 32.1667 180.326 32.8C180.393 33.4 180.16 33.8667 179.626 34.2C179.126 34.5 178.593 34.6833 178.026 34.75C177.493 34.8167 176.943 34.8333 176.376 34.8Z" fill="#130F26"/>
<path d="M182.943 34.15C182.843 34.0167 182.626 33.85 182.293 33.65C181.96 33.45 181.793 33.2833 181.793 33.15C181.793 33.0833 181.776 33 181.743 32.9C181.743 32.8 181.676 32.75 181.543 32.75C181.443 32.65 181.493 32.2833 181.693 31.65C181.926 31.0167 182.226 30.2667 182.593 29.4C182.993 28.5333 183.41 27.7 183.843 26.9C184.276 26.0667 184.643 25.4 184.943 24.9C185.11 24.8 185.21 24.6667 185.243 24.5C185.31 24.3 185.31 24.2 185.243 24.2C185.243 24.2 185.326 24.05 185.493 23.75C185.693 23.4167 185.843 23.2 185.943 23.1C186.21 22.6333 186.41 22.1667 186.543 21.7C186.676 21.2 186.71 20.7833 186.643 20.45C186.51 20.2833 186.36 20.2333 186.193 20.3C186.026 20.3667 185.943 20.4 185.943 20.4C185.81 20.4333 185.61 20.5 185.343 20.6C185.11 20.6667 184.893 20.7667 184.693 20.9C183.926 21.4333 183.36 21.7 182.993 21.7C182.66 21.7 182.326 21.3 181.993 20.5C181.86 20.1333 181.81 19.7833 181.843 19.45C181.876 19.1167 182.01 18.85 182.243 18.65C182.51 18.4167 182.843 18.1833 183.243 17.95C183.643 17.6833 183.91 17.5 184.043 17.4C184.41 17.1667 184.926 16.9167 185.593 16.65C186.26 16.3833 186.66 16.2333 186.793 16.2C187.66 15.9333 188.393 15.9333 188.993 16.2C189.593 16.4333 190.043 16.9 190.343 17.6C190.81 18.1667 191.043 18.7667 191.043 19.4C191.043 20.0333 190.81 20.8167 190.343 21.75L189.843 22.5C189.676 22.8333 189.643 23 189.743 23C189.876 23 190.026 22.8833 190.193 22.65C190.293 22.5167 190.493 22.3167 190.793 22.05C191.093 21.7833 191.293 21.65 191.393 21.65C191.393 21.65 191.426 21.6333 191.493 21.6C191.593 21.5667 191.643 21.4333 191.643 21.2C191.743 21.1 191.843 21 191.943 20.9C192.076 20.8 192.143 20.75 192.143 20.75C192.276 20.75 192.443 20.6833 192.643 20.55C192.876 20.3833 193.26 20.0833 193.793 19.65C194.16 19.3833 194.493 19.25 194.793 19.25C195.56 19.0167 196.176 19.2667 196.643 20C197.143 20.7333 197.393 21.6833 197.393 22.85L196.343 25.55L198.143 23.35C198.343 23.0833 198.543 22.85 198.743 22.65C198.976 22.45 199.176 22.2833 199.343 22.15C199.41 21.9167 199.51 21.7833 199.643 21.75C199.776 21.7167 199.843 21.7 199.843 21.7C199.843 21.7 199.876 21.7 199.943 21.7C200.01 21.6667 200.043 21.6 200.043 21.5C200.21 21.3667 200.393 21.25 200.593 21.15C200.793 21.0167 200.926 20.8833 200.993 20.75C201.56 20.5167 202.243 20.4833 203.043 20.65C203.843 20.7833 204.41 21.2 204.743 21.9C204.976 22.3 205.193 22.65 205.393 22.95C205.593 23.25 205.693 23.7 205.693 24.3C205.626 24.8 205.56 25.15 205.493 25.35C205.46 25.55 205.426 25.7667 205.393 26C205.36 26.2 205.31 26.5667 205.243 27.1C205.11 27.3667 205.026 27.65 204.993 27.95C204.993 28.25 204.993 28.5333 204.993 28.8C204.993 29.2333 205.01 29.5333 205.043 29.7C205.076 29.8333 205.21 29.9 205.443 29.9C205.91 29.8 206.293 29.65 206.593 29.45C206.926 29.2167 207.293 28.9167 207.693 28.55C208.193 28.0833 208.626 28.0167 208.993 28.35C209.393 28.65 209.643 29 209.743 29.4C209.81 29.5333 209.743 29.8333 209.543 30.3C209.343 30.7667 209.11 31.2167 208.843 31.65C208.576 32.0833 208.36 32.3 208.193 32.3C208.093 32.3 207.893 32.4333 207.593 32.7C207.293 32.9667 207.06 33.15 206.893 33.25C206.66 33.4833 206.426 33.7 206.193 33.9C205.993 34.1 205.76 34.2 205.493 34.2C205.36 34.2 205.193 34.25 204.993 34.35C204.826 34.4167 204.626 34.45 204.393 34.45C204.06 34.55 203.543 34.5 202.843 34.3C202.176 34.1 201.743 33.6333 201.543 32.9C201.41 32.5333 201.21 32.0667 200.943 31.5C200.71 30.9333 200.66 30.2333 200.793 29.4C200.926 28.8 201.01 28.25 201.043 27.75C201.076 27.25 201.143 26.9 201.243 26.7C201.243 26.6 201.243 26.3667 201.243 26C201.243 25.6 201.193 25.4 201.093 25.4C200.96 25.4 200.71 25.5667 200.343 25.9C199.976 26.2333 199.543 26.6833 199.043 27.25C198.543 27.7833 198.026 28.3667 197.493 29C196.993 29.6333 196.543 30.2667 196.143 30.9C195.843 31.2667 195.576 31.7167 195.343 32.25C195.11 32.7833 194.943 33.0833 194.843 33.15C194.61 33.4167 194.21 33.45 193.643 33.25C193.11 33.05 192.71 32.7333 192.443 32.3C192.343 32.1 192.226 31.9833 192.093 31.95C191.96 31.8833 191.843 31.7833 191.743 31.65C191.676 31.4833 191.676 31.1667 191.743 30.7C191.843 30.2333 192.06 29.4833 192.393 28.45C192.76 27.3167 193.076 26.3 193.343 25.4C193.643 24.4667 193.793 24 193.793 24C193.793 23.8667 193.543 24 193.043 24.4C192.543 24.7667 191.96 25.2333 191.293 25.8C190.993 26.1667 190.593 26.6333 190.093 27.2C189.626 27.7667 189.076 28.4333 188.443 29.2C187.843 29.9667 187.16 30.8667 186.393 31.9C185.426 33.2667 184.693 34.1 184.193 34.4C183.726 34.7 183.31 34.6167 182.943 34.15Z" fill="#130F26"/>
<path d="M213.358 34.95C213.225 34.6833 212.925 34.4167 212.458 34.15C212.025 33.8833 211.808 33.6833 211.808 33.55C211.808 33.4167 211.725 33.2167 211.558 32.95C211.425 32.65 211.292 32.4333 211.158 32.3C210.992 32.1 211.042 31.6167 211.308 30.85C211.575 30.05 211.975 29.0833 212.508 27.95C213.042 26.8167 213.625 25.6667 214.258 24.5C214.525 24.2333 214.792 23.8833 215.058 23.45C215.325 23.0167 215.525 22.7333 215.658 22.6C215.658 22.4667 215.708 22.35 215.808 22.25C215.908 22.1167 216.025 22.05 216.158 22.05L216.558 21.25C216.625 21.1167 216.825 20.85 217.158 20.45C217.525 20.05 217.958 19.6167 218.458 19.15C218.958 18.65 219.458 18.1833 219.958 17.75C220.492 17.3167 220.925 17 221.258 16.8C221.958 16.3333 222.675 16.1167 223.408 16.15C224.175 16.1833 224.825 16.4167 225.358 16.85C225.458 16.95 225.675 17.15 226.008 17.45C226.375 17.75 226.775 18.0833 227.208 18.45C227.675 18.8167 228.075 19.15 228.408 19.45L230.258 21.1L229.408 23.6C228.975 24.9333 228.858 26.1 229.058 27.1C229.292 28.1 229.608 28.9667 230.008 29.7C230.175 30.0667 230.392 30.35 230.658 30.55C230.958 30.75 231.342 30.8833 231.808 30.95C232.075 30.9833 232.325 31.0833 232.558 31.25C232.792 31.4167 232.908 31.6833 232.908 32.05C232.908 32.85 232.758 33.4333 232.458 33.8C232.192 34.1333 231.892 34.3333 231.558 34.4C230.458 34.5333 229.408 34.4167 228.408 34.05C227.408 33.6833 226.508 32.7333 225.708 31.2C225.575 31 225.392 30.6333 225.158 30.1C224.958 29.5333 224.842 29.1667 224.808 29C224.675 29.1667 224.492 29.3833 224.258 29.65C224.058 29.8833 223.858 30.1 223.658 30.3C221.292 32.7 219.258 34.2667 217.558 35C215.892 35.7 214.492 35.6833 213.358 34.95ZM216.108 30.8C216.342 30.8333 216.708 30.7167 217.208 30.45C217.708 30.15 218.375 29.6667 219.208 29C220.342 28.0333 221.275 27.2333 222.008 26.6C222.742 25.9667 223.458 25.15 224.158 24.15L225.258 22.35C224.925 21.5833 224.625 21.0833 224.358 20.85C224.092 20.6167 223.825 20.5 223.558 20.5C223.125 20.5 222.608 20.7833 222.008 21.35C221.408 21.8833 220.725 22.6833 219.958 23.75C219.225 24.7833 218.392 26.0833 217.458 27.65C217.025 28.3833 216.692 29.1 216.458 29.8C216.225 30.4667 216.108 30.8 216.108 30.8Z" fill="#130F26"/>
<path d="M237.073 34.3C236.939 34.3 236.623 34.1833 236.123 33.95C235.623 33.6833 235.306 33.4833 235.173 33.35C234.939 33.0833 234.789 32.8 234.723 32.5C234.656 32.1667 234.623 31.5333 234.623 30.6C234.623 29.5333 234.839 28.3333 235.273 27C235.706 25.6333 236.439 23.8167 237.473 21.55L239.523 17.4C239.689 17.1667 239.839 16.9667 239.973 16.8C240.106 16.6 240.256 16.4167 240.423 16.25C240.489 16.25 240.573 16.25 240.673 16.25C240.806 16.25 240.906 16.2667 240.973 16.3C241.273 16.3333 241.739 16.5167 242.373 16.85C243.039 17.1833 243.439 17.6833 243.573 18.35C243.573 18.7833 243.506 19.3 243.373 19.9C243.239 20.4667 242.839 21.2167 242.173 22.15C241.906 22.4833 241.639 22.9667 241.373 23.6C241.139 24.2333 240.923 24.8333 240.723 25.4C240.689 25.4667 240.589 25.6333 240.423 25.9C240.289 26.1333 240.156 26.3833 240.023 26.65C239.889 26.8833 239.823 27.0333 239.823 27.1L239.623 27.55L241.773 25.45C243.273 23.95 244.539 22.8833 245.573 22.25C246.606 21.6167 247.473 21.35 248.173 21.45C248.906 21.55 249.489 21.9667 249.923 22.7C250.156 23.0333 250.323 23.4 250.423 23.8C250.523 24.1667 250.589 24.6 250.623 25.1C250.656 25.6 250.639 26.2333 250.573 27V29.85C251.206 29.6833 251.689 29.55 252.023 29.45C252.356 29.3167 252.689 29.2 253.023 29.1C253.289 29.0333 253.556 28.9667 253.823 28.9C254.123 28.8333 254.489 28.7833 254.923 28.75C254.889 29.1833 254.706 29.7167 254.373 30.35C254.039 30.9833 253.623 31.6167 253.123 32.25C252.656 32.8833 252.139 33.4167 251.573 33.85C251.039 34.2833 250.539 34.5 250.073 34.5C249.639 34.5 249.139 34.3667 248.573 34.1C248.006 33.8 247.523 33.2333 247.123 32.4C246.989 31.9667 246.856 31.4667 246.723 30.9C246.589 30.3333 246.523 29.7333 246.523 29.1V26.9C246.523 26.7 246.506 26.5667 246.473 26.5C246.473 26.4 246.456 26.35 246.423 26.35C246.289 26.35 245.856 26.7 245.123 27.4C244.423 28.1 243.706 28.8333 242.973 29.6C241.439 31.2 240.156 32.3833 239.123 33.15C238.123 33.9167 237.439 34.3 237.073 34.3Z" fill="#130F26"/>
<path d="M271.122 36.95C270.689 37.05 270.255 36.9333 269.822 36.6C269.422 36.3 269.139 35.9667 268.972 35.6C268.772 35.0667 268.639 34.5667 268.572 34.1C268.539 33.6 268.505 33.0333 268.472 32.4L268.422 30.7L266.372 32.55C265.239 33.6167 264.172 34.3833 263.172 34.85C262.205 35.2833 261.322 35.5 260.522 35.5C260.155 35.4333 259.705 35.2 259.172 34.8C258.672 34.3667 258.205 33.9 257.772 33.4C257.372 32.8667 257.089 32.4333 256.922 32.1C256.722 31.6333 256.655 30.9833 256.722 30.15C256.822 29.3167 257.022 28.4 257.322 27.4C257.655 26.4 258.055 25.4167 258.522 24.45C259.022 23.4833 259.589 22.65 260.222 21.95C261.322 20.2833 262.689 19.25 264.322 18.85C265.955 18.4167 267.405 18.55 268.672 19.25C269.272 19.55 269.705 19.6667 269.972 19.6C270.239 19.5333 270.405 19.3167 270.472 18.95C270.605 18.4167 270.755 17.9167 270.922 17.45C271.089 16.9833 271.322 16.2833 271.622 15.35C272.455 12.8167 273.172 10.8333 273.772 9.40001C274.405 7.96667 274.972 6.71667 275.472 5.65C275.839 4.88334 276.205 4.35 276.572 4.05C276.939 3.75 277.255 3.61667 277.522 3.65C277.889 3.65 278.339 3.78334 278.872 4.05C279.439 4.31667 279.805 4.68334 279.972 5.15C280.105 5.45 280.155 5.76667 280.122 6.1C280.122 6.43334 280.022 6.78334 279.822 7.15C279.389 7.95 278.872 9.01667 278.272 10.35C277.705 11.65 277.122 13.0833 276.522 14.65C275.955 16.2167 275.422 17.7667 274.922 19.3C274.422 20.8333 274.005 22.1833 273.672 23.35C273.472 24.0833 273.305 25.0167 273.172 26.15C273.072 27.2833 272.989 28.45 272.922 29.65C272.889 30.8167 272.889 31.8667 272.922 32.8C272.955 33.7 273.005 34.2833 273.072 34.55C273.272 35.2167 273.272 35.7167 273.072 36.05C272.872 36.3833 272.589 36.6 272.222 36.7C271.855 36.8333 271.489 36.9167 271.122 36.95ZM262.872 30.9C263.339 30.7333 263.755 30.5333 264.122 30.3C264.489 30.0667 264.922 29.7667 265.422 29.4C266.422 28.6333 267.139 27.9667 267.572 27.4C268.039 26.8333 268.405 26.1333 268.672 25.3C268.839 24.8 268.839 24.3667 268.672 24C268.539 23.6333 268.289 23.2833 267.922 22.95C267.555 22.65 267.089 22.5333 266.522 22.6C265.955 22.6333 265.305 22.9833 264.572 23.65C263.772 24.3833 263.089 25.2333 262.522 26.2C261.955 27.1667 261.489 28.55 261.122 30.35C261.055 30.6833 261.172 30.9167 261.472 31.05C261.772 31.1833 262.239 31.1333 262.872 30.9Z" fill="#130F26"/>
<path d="M282.589 36.9C280.756 36.9 279.339 36.3667 278.339 35.3C277.372 34.2333 276.889 32.6 276.889 30.4C276.889 29.2 277.106 27.8833 277.539 26.45C278.006 25.0167 278.606 23.6167 279.339 22.25C280.106 20.8833 280.939 19.7 281.839 18.7C282.739 17.6667 283.639 16.95 284.539 16.55C284.872 16.3833 285.222 16.2667 285.589 16.2C285.989 16.1 286.372 16.05 286.739 16.05C287.139 16.05 287.572 16.0833 288.039 16.15C288.539 16.1833 289.006 16.2833 289.439 16.45C290.206 16.6833 290.872 17.1333 291.439 17.8C292.039 18.4667 292.339 19.4333 292.339 20.7C292.339 21.0333 292.306 21.4 292.239 21.8C292.172 22.1667 292.056 22.5333 291.889 22.9C291.456 24 290.789 25.05 289.889 26.05C289.022 27.05 288.106 27.75 287.139 28.15C286.872 28.2833 286.606 28.3833 286.339 28.45C286.106 28.4833 285.856 28.5 285.589 28.5C284.889 28.5 284.256 28.4 283.689 28.2C283.156 28 282.656 27.7333 282.189 27.4L281.789 27.05L281.539 27.55C281.306 28.1833 281.139 28.7167 281.039 29.15C280.972 29.5833 280.939 29.9 280.939 30.1C280.939 30.5 280.956 30.9167 280.989 31.35C281.022 31.75 281.122 32.0833 281.289 32.35C281.422 32.5167 281.589 32.65 281.789 32.75C282.022 32.85 282.306 32.9 282.639 32.9C282.839 32.9 283.022 32.9 283.189 32.9C283.389 32.8667 283.556 32.8333 283.689 32.8C284.289 32.6667 284.772 32.45 285.139 32.15C285.539 31.8167 285.956 31.5333 286.389 31.3L286.589 31.2L286.539 31.05C287.106 30.75 287.489 30.5667 287.689 30.5C287.889 30.4 288.039 30.3167 288.139 30.25C288.272 30.1167 288.422 30.05 288.589 30.05C289.056 29.9833 289.506 30.1167 289.939 30.45C290.406 30.75 290.639 31.1333 290.639 31.6C290.639 31.8 290.489 32.1167 290.189 32.55C289.922 32.9833 289.572 33.4167 289.139 33.85C288.739 34.25 288.322 34.5667 287.889 34.8C287.789 34.8333 287.689 34.8833 287.589 34.95C287.489 34.9833 287.389 35.0333 287.289 35.1H287.339C287.039 35.5 286.739 35.7 286.439 35.7H286.039C285.906 35.9333 285.472 36.1833 284.739 36.45C284.006 36.75 283.289 36.9 282.589 36.9ZM285.189 24.85C285.489 24.85 285.756 24.8 285.989 24.7C286.256 24.6 286.506 24.4833 286.739 24.35C287.539 23.7833 288.056 23.05 288.289 22.15C288.522 21.25 288.439 20.5667 288.039 20.1C287.972 20 287.889 19.9333 287.789 19.9C287.689 19.8333 287.572 19.8 287.439 19.8C287.072 19.8 286.656 19.9167 286.189 20.15C285.756 20.3833 285.322 20.7167 284.889 21.15C284.456 21.5833 284.056 22.1 283.689 22.7L283.039 23.75C283.106 23.7167 283.156 23.7 283.189 23.7C283.256 23.6667 283.306 23.65 283.339 23.65C283.639 23.65 283.839 23.75 283.939 23.95C284.039 24.15 284.156 24.35 284.289 24.55C284.456 24.75 284.756 24.85 285.189 24.85Z" fill="#130F26"/>
<path d="M298.238 34.95C298.138 34.9833 297.922 34.9667 297.588 34.9C297.288 34.8333 296.972 34.75 296.638 34.65C296.338 34.55 296.155 34.4667 296.088 34.4C295.955 34.2667 295.772 34.0333 295.538 33.7C295.305 33.3333 295.172 32.85 295.138 32.25C295.138 31.65 295.422 30.9333 295.988 30.1C296.155 29.7667 296.355 29.2667 296.588 28.6C296.822 27.9333 297.055 27.2333 297.288 26.5C297.555 25.7333 297.788 25.05 297.988 24.45C298.222 23.85 298.388 23.4333 298.488 23.2C298.555 22.6333 298.522 22.2333 298.388 22C298.288 21.7333 298.005 21.5833 297.538 21.55C297.205 21.55 296.938 21.4333 296.738 21.2C296.572 20.9667 296.488 20.55 296.488 19.95C296.555 19.4833 296.672 19.0833 296.838 18.75C297.038 18.3833 297.305 18.0833 297.638 17.85C297.972 17.6833 298.388 17.5667 298.888 17.5C299.422 17.4333 299.938 17.4167 300.438 17.45C300.938 17.4833 301.288 17.6 301.488 17.8C301.722 17.9333 301.905 18.2333 302.038 18.7C302.205 19.1333 302.338 19.5833 302.438 20.05C302.538 20.5167 302.605 20.8667 302.638 21.1C302.972 20.8333 303.338 20.4667 303.738 20C304.172 19.5 304.605 19.0333 305.038 18.6C305.572 18.2333 306.205 17.8667 306.938 17.5C307.672 17.1 308.205 16.9 308.538 16.9C308.905 16.9 309.355 17.0833 309.888 17.45C310.422 17.7833 310.755 18.0833 310.888 18.35C311.222 18.9167 311.455 19.5167 311.588 20.15C311.755 20.75 311.655 21.2833 311.288 21.75C310.955 22.1833 310.488 22.6167 309.888 23.05C309.288 23.45 308.538 23.5667 307.638 23.4C307.438 23.3333 307.222 23.0833 306.988 22.65C306.788 22.2167 306.672 21.9 306.638 21.7C306.638 21.6 306.488 21.7 306.188 22C305.922 22.2667 305.588 22.6 305.188 23C304.822 23.4 304.472 23.7667 304.138 24.1C303.572 24.8 302.972 25.75 302.338 26.95C301.705 28.15 300.955 29.6 300.088 31.3C299.688 32.1333 299.355 32.9333 299.088 33.7C298.822 34.4333 298.538 34.85 298.238 34.95Z" fill="#130F26"/>
</svg>
